<svg width="31" height="25" viewBox="0 0 31 25" fill="none" xmlns="http://www.w3.org/2000/svg">
<g filter="url(#filter0_i)">
<path d="M2.28671 18.5909H5.68476V6.40894H2.28671C1.98642 6.40894 1.68906 6.46695 1.41162 6.57967C1.13418 6.69238 0.882097 6.85759 0.669756 7.06586C0.457415 7.27413 0.288978 7.52138 0.174061 7.7935C0.0591436 8.06562 -2.26159e-06 8.35727 0 8.65181V16.3481C-2.26159e-06 16.6426 0.0591436 16.9343 0.174061 17.2064C0.288978 17.4785 0.457415 17.7258 0.669756 17.934C0.882097 18.1423 1.13418 18.3075 1.41162 18.4202C1.68906 18.5329 1.98642 18.5909 2.28671 18.5909Z" fill="#ABABAB"/>
</g>
<path d="M5.58476 6.50894V18.4909H2.28671C1.99928 18.4909 1.71471 18.4354 1.44926 18.3276C1.18381 18.2197 0.942749 18.0617 0.739779 17.8626C0.536813 17.6636 0.375918 17.4273 0.266183 17.1675C0.15645 16.9076 0.0999978 16.6292 0.1 16.3481V8.65181C0.0999978 8.37068 0.15645 8.09225 0.266183 7.83241C0.375918 7.57256 0.536813 7.33633 0.739779 7.13725C0.942749 6.93817 1.18381 6.78016 1.44926 6.67231C1.71471 6.56447 1.99928 6.50894 2.28671 6.50894H5.58476Z" stroke="#CDCDCD" stroke-width="0.2"/>
<g filter="url(#filter1_i)">
<path d="M7.08624 18.591L16.5595 24.8273C16.7305 24.9399 16.9318 25 17.1378 25H17.3431C17.5638 25 17.7755 24.914 17.9316 24.7609C18.0877 24.6078 18.1754 24.4002 18.1754 24.1837V0.816323C18.1754 0.599821 18.0877 0.392188 17.9316 0.239098C17.7755 0.0860086 17.5638 2.68831e-06 17.3431 3.6924e-10H17.1378C16.9318 -5.44012e-06 16.7305 0.0601106 16.5595 0.172692L7.08624 6.40899V18.591Z" fill="#ABABAB"/>
</g>
<path d="M16.6145 24.7438L7.18624 18.5371V6.46288L16.6145 0.256218L16.567 0.184064L16.6145 0.256217C16.7691 0.154451 16.9512 0.0999951 17.1378 0.1H17.3431C17.5379 0.100002 17.7244 0.175934 17.8616 0.31049C17.9987 0.444983 18.0754 0.626976 18.0754 0.816323V24.1837C18.0754 24.373 17.9987 24.555 17.8616 24.6895C17.7244 24.8241 17.5379 24.9 17.3431 24.9H17.1378C16.9512 24.9 16.7691 24.8455 16.6145 24.7438L16.5667 24.8164L16.6145 24.7438Z" stroke="#CDCDCD" stroke-width="0.2"/>
<g filter="url(#filter2_i)">
<path d="M20.9798 16.8542L20.9951 16.8691C21.153 17.0239 21.3664 17.1121 21.5896 17.1147C21.8129 17.1173 22.0284 17.0343 22.1901 16.8832C22.7969 16.3187 23.2802 15.6389 23.6105 14.8853C23.9408 14.1316 24.1111 13.3199 24.1111 12.4996C24.1111 11.6793 23.9408 10.8675 23.6105 10.1139C23.2803 9.36021 22.797 8.68041 22.1902 8.1159C22.0292 7.96513 21.8145 7.88192 21.5919 7.88395C21.3693 7.88598 21.1563 7.9731 20.9982 8.12678L20.9797 8.14496C20.8993 8.2249 20.8362 8.31991 20.7941 8.4243C20.7519 8.52869 20.7317 8.64034 20.7345 8.75258C20.7373 8.86481 20.7632 8.97534 20.8105 9.07757C20.8579 9.17979 20.9257 9.27162 21.01 9.34757C21.4457 9.75382 21.7925 10.2427 22.0296 10.7845C22.2666 11.3264 22.3889 11.9098 22.3889 12.4994C22.3889 13.089 22.2667 13.6724 22.0297 14.2143C21.7927 14.7561 21.4458 15.245 21.0102 15.6513C20.9258 15.7273 20.858 15.8191 20.8106 15.9213C20.7633 16.0236 20.7374 16.1341 20.7346 16.2464C20.7318 16.3587 20.752 16.4703 20.7941 16.5748C20.8363 16.6792 20.8994 16.7742 20.9798 16.8542V16.8542Z" fill="#ABABAB"/>
</g>
<path d="M21.0501 16.783C20.9793 16.7126 20.9239 16.629 20.8869 16.5373C20.8499 16.4456 20.8321 16.3475 20.8346 16.2489C20.8371 16.1504 20.8598 16.0533 20.9014 15.9634C20.943 15.8735 21.0027 15.7926 21.0771 15.7256L21.0771 15.7256L21.0784 15.7244C21.5239 15.3089 21.8788 14.8088 22.1213 14.2543C22.3638 13.6999 22.4889 13.1028 22.4889 12.4994C22.4889 11.896 22.3637 11.2989 22.1212 10.7445C21.8786 10.19 21.5238 9.68992 21.0782 9.27443L21.0782 9.27442L21.0769 9.27327C21.0026 9.2063 20.9429 9.12543 20.9013 9.03555C20.8597 8.94568 20.837 8.84859 20.8345 8.75006C20.832 8.65152 20.8498 8.55347 20.8868 8.46172C20.9238 8.36996 20.9793 8.28632 21.0502 8.21585L21.0681 8.19834C21.2075 8.06286 21.3958 7.98574 21.5929 7.98394C21.79 7.98214 21.9798 8.05587 22.1218 8.18889L22.1221 8.18912C22.719 8.74439 23.1942 9.41296 23.5189 10.154C23.8437 10.8951 24.0111 11.6931 24.0111 12.4996C24.0111 13.306 23.8436 14.1041 23.5189 14.8451C23.1942 15.5862 22.7189 16.2548 22.122 16.81L22.1218 16.8102C21.9791 16.9434 21.7886 17.017 21.5908 17.0147C21.3931 17.0124 21.2044 16.9343 21.0651 16.7977C21.0651 16.7977 21.0651 16.7977 21.065 16.7977L21.0503 16.7833C21.0502 16.7832 21.0502 16.7831 21.0501 16.783Z" stroke="#CDCDCD" stroke-width="0.2"/>
<g filter="url(#filter3_i)">
<path d="M23.4244 5.74707L23.4109 5.76033C23.3313 5.83736 23.2681 5.92917 23.2251 6.03041C23.182 6.13165 23.16 6.24028 23.1602 6.34996C23.1604 6.45965 23.183 6.56819 23.2264 6.66925C23.2699 6.77032 23.3334 6.86187 23.4134 6.93858C24.1783 7.65759 24.7871 8.52096 25.203 9.47675C25.6189 10.4325 25.8333 11.461 25.8333 12.5002C25.8334 13.5394 25.619 14.5678 25.2032 15.5237C24.7875 16.4795 24.1788 17.3429 23.4139 18.062C23.3341 18.1387 23.2706 18.2303 23.2273 18.3313C23.1839 18.4324 23.1615 18.5408 23.1613 18.6505C23.1611 18.7601 23.1832 18.8686 23.2263 18.9698C23.2693 19.071 23.3324 19.1627 23.412 19.2397L23.4256 19.253C23.5815 19.4072 23.7927 19.4955 24.0141 19.4989C24.2355 19.5023 24.4494 19.4205 24.6101 19.2711C25.5414 18.3956 26.2825 17.3444 26.7886 16.1806C27.2948 15.0169 27.5557 13.7647 27.5555 12.4994C27.5554 11.2342 27.2942 9.98208 26.7877 8.81844C26.2812 7.6548 25.5399 6.60371 24.6084 5.72845C24.4477 5.57929 24.2338 5.49773 24.0126 5.50121C23.7913 5.50469 23.5802 5.59293 23.4244 5.74707V5.74707Z" fill="#ABABAB"/>
</g>
<path d="M23.4804 5.83219L23.4804 5.83219L23.4809 5.83172L23.4944 5.81846L23.4244 5.74707L23.4947 5.81816C23.632 5.68235 23.8184 5.60427 24.0141 5.60119C24.2098 5.59812 24.3986 5.67022 24.5402 5.80154C25.4618 6.66754 26.1951 7.70735 26.696 8.85835C27.197 10.0094 27.4554 11.248 27.4555 12.4994C27.4557 13.7509 27.1977 14.9895 26.6969 16.1407C26.1962 17.2919 25.4632 18.3319 24.5418 19.1981C24.4002 19.3296 24.2114 19.4019 24.0156 19.3989C23.8198 19.3959 23.6333 19.3178 23.4959 19.1819L23.4956 19.1816L23.482 19.1683L23.4815 19.1678C23.4115 19.1001 23.356 19.0194 23.3183 18.9307C23.2805 18.8419 23.2612 18.7467 23.2613 18.6506C23.2615 18.5545 23.2811 18.4594 23.3192 18.3708C23.3571 18.2823 23.4127 18.2019 23.4828 18.1345C24.2573 17.4062 24.8738 16.5317 25.2949 15.5635C25.7162 14.5952 25.9334 13.5531 25.9333 12.5002C25.9333 11.4472 25.716 10.4052 25.2947 9.43686C24.8734 8.46868 24.2568 7.59424 23.4822 6.86607C23.4121 6.79863 23.3564 6.71828 23.3183 6.62975C23.2801 6.54106 23.2604 6.44588 23.2602 6.34975C23.26 6.25362 23.2793 6.15837 23.3171 6.06953C23.3549 5.98069 23.4104 5.89999 23.4804 5.83219Z" stroke="#CDCDCD" stroke-width="0.2"/>
<g filter="url(#filter4_i)">
<path d="M25.8598 3.35836L25.8441 3.37375C25.7646 3.45239 25.7019 3.54577 25.6596 3.64846C25.6173 3.75114 25.5962 3.86106 25.5977 3.9718C25.5992 4.08254 25.6232 4.19188 25.6682 4.29344C25.7133 4.39499 25.7785 4.48672 25.8601 4.56328C26.9415 5.59528 27.8011 6.82936 28.3881 8.19265C28.9751 9.55593 29.2776 11.0208 29.2778 12.5006C29.2779 13.9805 28.9757 15.4454 28.389 16.8088C27.8023 18.1722 26.943 19.4065 25.8618 20.4387C25.7804 20.5153 25.7153 20.607 25.6704 20.7085C25.6254 20.81 25.6016 20.9193 25.6002 21.03C25.5987 21.1406 25.6198 21.2504 25.6621 21.353C25.7044 21.4556 25.7671 21.5489 25.8466 21.6275L25.8623 21.6429C26.0205 21.798 26.2345 21.8859 26.4582 21.8875C26.6818 21.8892 26.8971 21.8045 27.0577 21.6518C28.3054 20.4624 29.2972 19.0396 29.9744 17.4676C30.6515 15.8955 31.0003 14.2063 31 12.4997C30.9997 10.7931 30.6504 9.10396 29.9727 7.53217C29.295 5.96037 28.3027 4.53789 27.0545 3.34891C26.8939 3.19647 26.6787 3.11203 26.4552 3.1138C26.2317 3.11556 26.0179 3.2034 25.8598 3.35836V3.35836Z" fill="#ABABAB"/>
</g>
<path d="M25.9292 4.49093L25.9292 4.49093C27.0202 5.53215 27.8876 6.77737 28.48 8.1531C29.0723 9.52883 29.3776 11.0071 29.3778 12.5006C29.3779 13.9941 29.0729 15.4725 28.4809 16.8483C27.8888 18.2242 27.0217 19.4696 25.9308 20.511L25.9303 20.5115C25.8585 20.5791 25.8013 20.6598 25.7618 20.749C25.7223 20.8382 25.7014 20.9341 25.7001 21.0312C25.6989 21.1283 25.7174 21.2248 25.7545 21.3149C25.7917 21.4049 25.8467 21.4869 25.9166 21.5561L25.9292 4.49093ZM25.9292 4.49093L25.9285 4.49035C25.8566 4.42287 25.7992 4.34213 25.7597 4.25289C25.7201 4.16365 25.699 4.06764 25.6977 3.97046C25.6964 3.87328 25.7149 3.77677 25.752 3.68655C25.7892 3.59633 25.8444 3.51415 25.9144 3.44485L25.9298 3.42977C25.9298 3.42976 25.9298 3.42976 25.9298 3.42975C26.0692 3.29313 26.2581 3.21536 26.456 3.21379C26.6538 3.21223 26.844 3.28698 26.9856 3.42137C28.2241 4.60112 29.2085 6.01244 29.8808 7.57176C30.5532 9.13109 30.8997 10.8068 30.9 12.4997C30.9003 14.1926 30.5543 15.8684 29.8825 17.428C29.2107 18.9876 28.2267 20.3992 26.9887 21.5794C26.8471 21.714 26.6569 21.789 26.4589 21.7875C26.2609 21.786 26.0718 21.7083 25.9323 21.5715C25.9323 21.5715 25.9323 21.5715 25.9323 21.5715L25.9169 21.5564L25.9292 4.49093Z" stroke="#CDCDCD" stroke-width="0.2"/>
<defs>
<filter id="filter0_i" x="0" y="6.40894" width="5.68476" height="16.182" filterUnits="userSpaceOnUse" color-interpolation-filters="sRGB">
<feFlood flood-opacity="0" result="BackgroundImageFix"/>
<feBlend mode="normal" in="SourceGraphic" in2="BackgroundImageFix" result="shape"/>
<feColorMatrix in="SourceAlpha" type="matrix" values="0 0 0 0 0 0 0 0 0 0 0 0 0 0 0 0 0 0 127 0" result="hardAlpha"/>
<feOffset dy="4"/>
<feGaussianBlur stdDeviation="2"/>
<feComposite in2="hardAlpha" operator="arithmetic" k2="-1" k3="1"/>
<feColorMatrix type="matrix" values="0 0 0 0 0 0 0 0 0 0 0 0 0 0 0 0 0 0 0.25 0"/>
<feBlend mode="normal" in2="shape" result="effect1_innerShadow"/>
</filter>
<filter id="filter1_i" x="7.08624" y="0" width="11.0891" height="29" filterUnits="userSpaceOnUse" color-interpolation-filters="sRGB">
<feFlood flood-opacity="0" result="BackgroundImageFix"/>
<feBlend mode="normal" in="SourceGraphic" in2="BackgroundImageFix" result="shape"/>
<feColorMatrix in="SourceAlpha" type="matrix" values="0 0 0 0 0 0 0 0 0 0 0 0 0 0 0 0 0 0 127 0" result="hardAlpha"/>
<feOffset dy="4"/>
<feGaussianBlur stdDeviation="2"/>
<feComposite in2="hardAlpha" operator="arithmetic" k2="-1" k3="1"/>
<feColorMatrix type="matrix" values="0 0 0 0 0 0 0 0 0 0 0 0 0 0 0 0 0 0 0.25 0"/>
<feBlend mode="normal" in2="shape" result="effect1_innerShadow"/>
</filter>
<filter id="filter2_i" x="20.7343" y="7.88391" width="3.37684" height="13.2308" filterUnits="userSpaceOnUse" color-interpolation-filters="sRGB">
<feFlood flood-opacity="0" result="BackgroundImageFix"/>
<feBlend mode="normal" in="SourceGraphic" in2="BackgroundImageFix" result="shape"/>
<feColorMatrix in="SourceAlpha" type="matrix" values="0 0 0 0 0 0 0 0 0 0 0 0 0 0 0 0 0 0 127 0" result="hardAlpha"/>
<feOffset dy="4"/>
<feGaussianBlur stdDeviation="2"/>
<feComposite in2="hardAlpha" operator="arithmetic" k2="-1" k3="1"/>
<feColorMatrix type="matrix" values="0 0 0 0 0 0 0 0 0 0 0 0 0 0 0 0 0 0 0.25 0"/>
<feBlend mode="normal" in2="shape" result="effect1_innerShadow"/>
</filter>
<filter id="filter3_i" x="23.1602" y="5.5011" width="4.39532" height="17.9979" filterUnits="userSpaceOnUse" color-interpolation-filters="sRGB">
<feFlood flood-opacity="0" result="BackgroundImageFix"/>
<feBlend mode="normal" in="SourceGraphic" in2="BackgroundImageFix" result="shape"/>
<feColorMatrix in="SourceAlpha" type="matrix" values="0 0 0 0 0 0 0 0 0 0 0 0 0 0 0 0 0 0 127 0" result="hardAlpha"/>
<feOffset dy="4"/>
<feGaussianBlur stdDeviation="2"/>
<feComposite in2="hardAlpha" operator="arithmetic" k2="-1" k3="1"/>
<feColorMatrix type="matrix" values="0 0 0 0 0 0 0 0 0 0 0 0 0 0 0 0 0 0 0.25 0"/>
<feBlend mode="normal" in2="shape" result="effect1_innerShadow"/>
</filter>
<filter id="filter4_i" x="25.5977" y="3.11377" width="5.40233" height="22.7738" filterUnits="userSpaceOnUse" color-interpolation-filters="sRGB">
<feFlood flood-opacity="0" result="BackgroundImageFix"/>
<feBlend mode="normal" in="SourceGraphic" in2="BackgroundImageFix" result="shape"/>
<feColorMatrix in="SourceAlpha" type="matrix" values="0 0 0 0 0 0 0 0 0 0 0 0 0 0 0 0 0 0 127 0" result="hardAlpha"/>
<feOffset dy="4"/>
<feGaussianBlur stdDeviation="2"/>
<feComposite in2="hardAlpha" operator="arithmetic" k2="-1" k3="1"/>
<feColorMatrix type="matrix" values="0 0 0 0 0 0 0 0 0 0 0 0 0 0 0 0 0 0 0.25 0"/>
<feBlend mode="normal" in2="shape" result="effect1_innerShadow"/>
</filter>
</defs>
</svg>
